<svg width="645pt" height="1476pt" xmlns="http://www.w3.org/2000/svg" xmlns:xlink="http://www.w3.org/1999/xlink" xmlns:ev="http://www.w3.org/2001/xml-events" style="overflow: hidden; "><g id="viewport-20241111233542165" class="svg-pan-zoom_viewport" transform="matrix(0.41123529539367,0,0,0.41123529539367,213.71627599338984,37.65243437073037)" style="transform: matrix(0.411235, 0, 0, 0.411235, 213.716, 37.6524);">
<g id="graph0" class="graph" transform="scale(1 1) rotate(0) translate(4 1472.23)">
<title>G</title>
<polygon fill="white" stroke="none" points="-4,4 -4,-1472.23 641,-1472.23 641,4 -4,4"></polygon>
<!-- block_0 -->
<g id="node1" class="node">
<title>block_0</title>
<ellipse fill="none" stroke="black" cx="542" cy="-1450.23" rx="69.51" ry="18"></ellipse>
<text text-anchor="middle" x="542" y="-1446.03" font-family="Times,serif" font-size="14.00">block 0 (Body)</text>
</g>
<!-- block_0_node_0 -->
<g id="node2" class="node">
<title>block_0_node_0</title>
<ellipse fill="none" stroke="black" cx="542" cy="-1377.23" rx="35.8" ry="18"></ellipse>
<text text-anchor="middle" x="542" y="-1373.03" font-family="Times,serif" font-size="14.00">x = 10</text>
</g>
<!-- block_0&#45;&gt;block_0_node_0 -->
<g id="edge1" class="edge">
<title>block_0-&gt;block_0_node_0</title>
<path fill="none" stroke="black" d="M542,-1432.04C542,-1424.46 542,-1415.33 542,-1406.77"></path>
<polygon fill="black" stroke="black" points="545.5,-1406.77 542,-1396.77 538.5,-1406.77 545.5,-1406.77"></polygon>
</g>
<!-- block_0_node_1 -->
<g id="node3" class="node">
<title>block_0_node_1</title>
<ellipse fill="none" stroke="black" cx="444" cy="-1304.23" rx="35.8" ry="18"></ellipse>
<text text-anchor="middle" x="444" y="-1300.03" font-family="Times,serif" font-size="14.00">y = 20</text>
</g>
<!-- block_0_node_0&#45;&gt;block_0_node_1 -->
<g id="edge2" class="edge">
<title>block_0_node_0-&gt;block_0_node_1</title>
<path fill="none" stroke="black" d="M522.17,-1361.86C507.96,-1351.57 488.59,-1337.54 472.7,-1326.02"></path>
<polygon fill="black" stroke="black" points="475.18,-1323.5 465.03,-1320.47 471.07,-1329.17 475.18,-1323.5"></polygon>
</g>
<!-- block_8_node_1 -->
<g id="node23" class="node">
<title>block_8_node_1</title>
<ellipse fill="none" stroke="black" cx="363" cy="-413.2" rx="58.41" ry="18"></ellipse>
<text text-anchor="middle" x="363" y="-409" font-family="Times,serif" font-size="14.00">x = y + n * i</text>
</g>
<!-- block_0_node_0&#45;&gt;block_8_node_1 -->
<g id="edge29" class="edge">
<title>block_0_node_0-&gt;block_8_node_1</title>
<path fill="none" stroke="black" stroke-dasharray="1,5" d="M569.76,-1365.64C593.55,-1354.55 624,-1334.61 624,-1305.23 624,-1305.23 624,-1305.23 624,-520.2 624,-488.04 633.35,-471.32 610,-449.2 585.12,-425.63 496.62,-417.83 432.66,-415.3"></path>
<polygon fill="black" stroke="black" points="433.05,-411.81 422.93,-414.96 432.8,-418.81 433.05,-411.81"></polygon>
<text text-anchor="middle" x="630.5" y="-901.23" font-family="Times,serif" font-size="26.00">x</text>
</g>
<!-- block_0_node_2 -->
<g id="node4" class="node">
<title>block_0_node_2</title>
<ellipse fill="none" stroke="black" cx="326" cy="-1231.23" rx="30.97" ry="18"></ellipse>
<text text-anchor="middle" x="326" y="-1227.03" font-family="Times,serif" font-size="14.00">n = 5</text>
</g>
<!-- block_0_node_1&#45;&gt;block_0_node_2 -->
<g id="edge3" class="edge">
<title>block_0_node_1-&gt;block_0_node_2</title>
<path fill="none" stroke="black" d="M421.53,-1289.71C403.11,-1278.63 376.86,-1262.83 356.53,-1250.6"></path>
<polygon fill="black" stroke="black" points="358.48,-1247.69 348.1,-1245.53 354.87,-1253.69 358.48,-1247.69"></polygon>
</g>
<!-- block_5_node_1 -->
<g id="node17" class="node">
<title>block_5_node_1</title>
<ellipse fill="none" stroke="black" cx="200" cy="-594.2" rx="58.41" ry="18"></ellipse>
<text text-anchor="middle" x="200" y="-590" font-family="Times,serif" font-size="14.00">y = x + n * i</text>
</g>
<!-- block_0_node_1&#45;&gt;block_5_node_1 -->
<g id="edge31" class="edge">
<title>block_0_node_1-&gt;block_5_node_1</title>
<path fill="none" stroke="black" stroke-dasharray="1,5" d="M444,-1286.01C444,-1271.64 444,-1250.6 444,-1232.23 444,-1232.23 444,-1232.23 444,-677.62 444,-667.59 324.31,-631.18 252.59,-610.26"></path>
<polygon fill="black" stroke="black" points="253.98,-607.02 243.4,-607.59 252.02,-613.74 253.98,-607.02"></polygon>
<text text-anchor="middle" x="450.5" y="-952.83" font-family="Times,serif" font-size="26.00">y</text>
</g>
<!-- block_0_node_3 -->
<g id="node5" class="node">
<title>block_0_node_3</title>
<ellipse fill="none" stroke="black" cx="120" cy="-1158.23" rx="28.82" ry="18"></ellipse>
<text text-anchor="middle" x="120" y="-1154.03" font-family="Times,serif" font-size="14.00">i = 1</text>
</g>
<!-- block_0_node_2&#45;&gt;block_0_node_3 -->
<g id="edge4" class="edge">
<title>block_0_node_2-&gt;block_0_node_3</title>
<path fill="none" stroke="black" d="M299.91,-1221.24C263.39,-1208.65 196.91,-1185.74 155.79,-1171.57"></path>
<polygon fill="black" stroke="black" points="156.94,-1168.26 146.35,-1168.31 154.66,-1174.88 156.94,-1168.26"></polygon>
</g>
<!-- block_3 -->
<g id="node6" class="node">
<title>block_3</title>
<ellipse fill="none" stroke="black" cx="120" cy="-1085.23" rx="82.38" ry="18"></ellipse>
<text text-anchor="middle" x="120" y="-1081.03" font-family="Times,serif" font-size="14.00">block 3 (ForLoop)</text>
</g>
<!-- block_0_node_3&#45;&gt;block_3 -->
<g id="edge5" class="edge">
<title>block_0_node_3-&gt;block_3</title>
<path fill="none" stroke="black" d="M120,-1140.04C120,-1132.46 120,-1123.33 120,-1114.77"></path>
<polygon fill="black" stroke="black" points="123.5,-1114.77 120,-1104.77 116.5,-1114.77 123.5,-1114.77"></polygon>
</g>
<!-- block_4_node_0 -->
<g id="node15" class="node">
<title>block_4_node_0</title>
<ellipse fill="none" stroke="black" cx="38" cy="-18" rx="27.03" ry="18"></ellipse>
<text text-anchor="middle" x="38" y="-13.8" font-family="Times,serif" font-size="14.00">i ++</text>
</g>
<!-- block_0_node_3&#45;&gt;block_4_node_0 -->
<g id="edge32" class="edge">
<title>block_0_node_3-&gt;block_4_node_0</title>
<path fill="none" stroke="black" stroke-dasharray="1,5" d="M91.87,-1153.19C56.4,-1146.32 0,-1128.71 0,-1086.23 0,-1086.23 0,-1086.23 0,-90 0,-72.95 8.62,-56.04 17.65,-43"></path>
<polygon fill="black" stroke="black" points="20.4,-45.16 23.59,-35.06 14.8,-40.97 20.4,-45.16"></polygon>
<text text-anchor="middle" x="3.61" y="-586.4" font-family="Times,serif" font-size="26.00">i</text>
</g>
<!-- block_3_node_0 -->
<g id="node13" class="node">
<title>block_3_node_0</title>
<ellipse fill="none" stroke="black" cx="149" cy="-1012.23" rx="28.82" ry="18"></ellipse>
<text text-anchor="middle" x="149" y="-1008.03" font-family="Times,serif" font-size="14.00">i &lt; n</text>
</g>
<!-- block_3&#45;&gt;block_3_node_0 -->
<g id="edge10" class="edge">
<title>block_3-&gt;block_3_node_0</title>
<path fill="none" stroke="black" d="M127.02,-1067.04C130.31,-1058.99 134.31,-1049.21 137.98,-1040.2"></path>
<polygon fill="black" stroke="black" points="141.13,-1041.75 141.67,-1031.17 134.65,-1039.11 141.13,-1041.75"></polygon>
</g>
<!-- block_1 -->
<g id="node7" class="node">
<title>block_1</title>
<ellipse fill="none" stroke="black" cx="149" cy="-909.03" rx="82.92" ry="18"></ellipse>
<text text-anchor="middle" x="149" y="-904.83" font-family="Times,serif" font-size="14.00">block 1 (ForBody)</text>
</g>
<!-- block_1_node_0 -->
<g id="node8" class="node">
<title>block_1_node_0</title>
<ellipse fill="none" stroke="black" cx="180" cy="-836.03" rx="30.97" ry="18"></ellipse>
<text text-anchor="middle" x="180" y="-831.83" font-family="Times,serif" font-size="14.00">x &gt; y</text>
</g>
<!-- block_1&#45;&gt;block_1_node_0 -->
<g id="edge6" class="edge">
<title>block_1-&gt;block_1_node_0</title>
<path fill="none" stroke="black" d="M156.5,-890.84C160.02,-882.79 164.29,-873.01 168.22,-864"></path>
<polygon fill="black" stroke="black" points="171.38,-865.52 172.17,-854.96 164.96,-862.72 171.38,-865.52"></polygon>
</g>
<!-- block_5 -->
<g id="node9" class="node">
<title>block_5</title>
<ellipse fill="none" stroke="black" cx="180" cy="-763.03" rx="74.85" ry="18"></ellipse>
<text text-anchor="middle" x="180" y="-758.83" font-family="Times,serif" font-size="14.00">block 5 (IfThen)</text>
</g>
<!-- block_1_node_0&#45;&gt;block_5 -->
<g id="edge7" class="edge">
<title>block_1_node_0-&gt;block_5</title>
<path fill="none" stroke="purple" d="M180,-817.84C180,-810.26 180,-801.13 180,-792.57"></path>
<polygon fill="purple" stroke="purple" points="183.5,-792.57 180,-782.57 176.5,-792.57 183.5,-792.57"></polygon>
</g>
<!-- block_7 -->
<g id="node10" class="node">
<title>block_7</title>
<ellipse fill="none" stroke="black" cx="344" cy="-763.03" rx="71.64" ry="18"></ellipse>
<text text-anchor="middle" x="344" y="-758.83" font-family="Times,serif" font-size="14.00">block 7 (IfElse)</text>
</g>
<!-- block_1_node_0&#45;&gt;block_7 -->
<g id="edge8" class="edge">
<title>block_1_node_0-&gt;block_7</title>
<path fill="none" stroke="red" d="M204.2,-824.55C228.99,-813.82 268.11,-796.89 298.68,-783.65"></path>
<polygon fill="red" stroke="red" points="299.92,-786.93 307.7,-779.75 297.13,-780.51 299.92,-786.93"></polygon>
</g>
<!-- block_5_node_0 -->
<g id="node16" class="node">
<title>block_5_node_0</title>
<ellipse fill="none" stroke="black" cx="211" cy="-678.62" rx="144.84" ry="29.42"></ellipse>
<text text-anchor="middle" x="211" y="-682.82" font-family="Times,serif" font-size="14.00">fmt.Printf("%d is greater than %d</text>
<text text-anchor="middle" x="211" y="-666.02" font-family="Times,serif" font-size="14.00">", x, y)</text>
</g>
<!-- block_5&#45;&gt;block_5_node_0 -->
<g id="edge15" class="edge">
<title>block_5-&gt;block_5_node_0</title>
<path fill="none" stroke="black" d="M186.42,-744.95C189.28,-737.36 192.77,-728.09 196.21,-718.93"></path>
<polygon fill="black" stroke="black" points="199.41,-720.36 199.66,-709.77 192.86,-717.9 199.41,-720.36"></polygon>
</g>
<!-- block_7_node_0 -->
<g id="node19" class="node">
<title>block_7_node_0</title>
<ellipse fill="none" stroke="black" cx="503" cy="-678.62" rx="30.97" ry="18"></ellipse>
<text text-anchor="middle" x="503" y="-674.42" font-family="Times,serif" font-size="14.00">x &lt; y</text>
</g>
<!-- block_7&#45;&gt;block_7_node_0 -->
<g id="edge19" class="edge">
<title>block_7-&gt;block_7_node_0</title>
<path fill="none" stroke="black" d="M374.28,-746.34C401.76,-732.09 442.19,-711.14 470.38,-696.53"></path>
<polygon fill="black" stroke="black" points="471.92,-699.67 479.19,-691.96 468.7,-693.45 471.92,-699.67"></polygon>
</g>
<!-- block_2 -->
<g id="node11" class="node">
<title>block_2</title>
<ellipse fill="none" stroke="black" cx="333" cy="-909.03" rx="82.91" ry="18"></ellipse>
<text text-anchor="middle" x="333" y="-904.83" font-family="Times,serif" font-size="14.00">block 2 (ForDone)</text>
</g>
<!-- block_2_node_0 -->
<g id="node12" class="node">
<title>block_2_node_0</title>
<ellipse fill="none" stroke="black" cx="333" cy="-836.03" rx="42.42" ry="18"></ellipse>
<text text-anchor="middle" x="333" y="-831.83" font-family="Times,serif" font-size="14.00">Return: </text>
</g>
<!-- block_2&#45;&gt;block_2_node_0 -->
<g id="edge9" class="edge">
<title>block_2-&gt;block_2_node_0</title>
<path fill="none" stroke="black" d="M333,-890.84C333,-883.26 333,-874.13 333,-865.57"></path>
<polygon fill="black" stroke="black" points="336.5,-865.57 333,-855.57 329.5,-865.57 336.5,-865.57"></polygon>
</g>
<!-- block_3_node_0&#45;&gt;block_1 -->
<g id="edge11" class="edge">
<title>block_3_node_0-&gt;block_1</title>
<path fill="none" stroke="purple" d="M149,-994.06C149,-978.94 149,-956.61 149,-938.77"></path>
<polygon fill="purple" stroke="purple" points="152.5,-938.8 149,-928.8 145.5,-938.8 152.5,-938.8"></polygon>
</g>
<!-- block_3_node_0&#45;&gt;block_2 -->
<g id="edge12" class="edge">
<title>block_3_node_0-&gt;block_2</title>
<path fill="none" stroke="red" d="M170.11,-999.62C200.26,-983.04 256.2,-952.27 294.01,-931.48"></path>
<polygon fill="red" stroke="red" points="295.28,-934.77 302.35,-926.89 291.9,-928.64 295.28,-934.77"></polygon>
</g>
<!-- block_4 -->
<g id="node14" class="node">
<title>block_4</title>
<ellipse fill="none" stroke="black" cx="170" cy="-91" rx="78.64" ry="18"></ellipse>
<text text-anchor="middle" x="170" y="-86.8" font-family="Times,serif" font-size="14.00">block 4 (ForPost)</text>
</g>
<!-- block_4&#45;&gt;block_4_node_0 -->
<g id="edge13" class="edge">
<title>block_4-&gt;block_4_node_0</title>
<path fill="none" stroke="black" d="M140.05,-73.89C118.61,-62.36 89.84,-46.89 68.32,-35.31"></path>
<polygon fill="black" stroke="black" points="70.2,-32.34 59.73,-30.69 66.88,-38.51 70.2,-32.34"></polygon>
</g>
<!-- block_4_node_0&#45;&gt;block_3 -->
<g id="edge14" class="edge">
<title>block_4_node_0-&gt;block_3</title>
<path fill="none" stroke="black" d="M38,-36.22C38,-50.59 38,-71.63 38,-90 38,-1013.23 38,-1013.23 38,-1013.23 38,-1034.94 54.63,-1051.49 72.91,-1063.14"></path>
<polygon fill="black" stroke="black" points="71.13,-1066.15 81.53,-1068.17 74.66,-1060.11 71.13,-1066.15"></polygon>
</g>
<!-- block_5_node_0&#45;&gt;block_5_node_1 -->
<g id="edge16" class="edge">
<title>block_5_node_0-&gt;block_5_node_1</title>
<path fill="none" stroke="black" d="M207.15,-648.79C206.07,-640.68 204.89,-631.87 203.81,-623.77"></path>
<polygon fill="black" stroke="black" points="207.31,-623.55 202.52,-614.1 200.38,-624.47 207.31,-623.55"></polygon>
</g>
<!-- block_6 -->
<g id="node18" class="node">
<title>block_6</title>
<ellipse fill="none" stroke="black" cx="199" cy="-164" rx="75.93" ry="18"></ellipse>
<text text-anchor="middle" x="199" y="-159.8" font-family="Times,serif" font-size="14.00">block 6 (IfDone)</text>
</g>
<!-- block_5_node_1&#45;&gt;block_6 -->
<g id="edge17" class="edge">
<title>block_5_node_1-&gt;block_6</title>
<path fill="none" stroke="red" d="M199.62,-575.98C199.34,-561.61 199,-540.57 199,-522.2 199,-522.2 199,-522.2 199,-236 199,-222.08 199,-206.63 199,-193.7"></path>
<polygon fill="red" stroke="red" points="202.5,-193.73 199,-183.73 195.5,-193.73 202.5,-193.73"></polygon>
</g>
<!-- block_6&#45;&gt;block_4 -->
<g id="edge18" class="edge">
<title>block_6-&gt;block_4</title>
<path fill="none" stroke="black" d="M191.98,-145.81C188.77,-137.96 184.9,-128.47 181.3,-119.66"></path>
<polygon fill="black" stroke="black" points="184.55,-118.36 177.53,-110.43 178.07,-121.01 184.55,-118.36"></polygon>
</g>
<!-- block_8 -->
<g id="node20" class="node">
<title>block_8</title>
<ellipse fill="none" stroke="black" cx="351" cy="-594.2" rx="74.85" ry="18"></ellipse>
<text text-anchor="middle" x="351" y="-590" font-family="Times,serif" font-size="14.00">block 8 (IfThen)</text>
</g>
<!-- block_7_node_0&#45;&gt;block_8 -->
<g id="edge20" class="edge">
<title>block_7_node_0-&gt;block_8</title>
<path fill="none" stroke="purple" d="M491.21,-661.56C482.93,-651.32 471.05,-638.45 458,-630.2 445.04,-622 429.97,-615.55 415.31,-610.53"></path>
<polygon fill="purple" stroke="purple" points="416.77,-607.32 406.18,-607.59 414.62,-613.98 416.77,-607.32"></polygon>
</g>
<!-- block_10 -->
<g id="node21" class="node">
<title>block_10</title>
<ellipse fill="none" stroke="black" cx="520" cy="-594.2" rx="76.47" ry="18"></ellipse>
<text text-anchor="middle" x="520" y="-590" font-family="Times,serif" font-size="14.00">block 10 (IfElse)</text>
</g>
<!-- block_7_node_0&#45;&gt;block_10 -->
<g id="edge21" class="edge">
<title>block_7_node_0-&gt;block_10</title>
<path fill="none" stroke="red" d="M506.52,-660.54C508.72,-649.89 511.6,-635.93 514.13,-623.64"></path>
<polygon fill="red" stroke="red" points="517.53,-624.52 516.12,-614.02 510.67,-623.11 517.53,-624.52"></polygon>
</g>
<!-- block_8_node_0 -->
<g id="node22" class="node">
<title>block_8_node_0</title>
<ellipse fill="none" stroke="black" cx="351" cy="-521.2" rx="124.34" ry="18"></ellipse>
<text text-anchor="middle" x="351" y="-517" font-family="Times,serif" font-size="14.00">fmt.Println("x is less than y")</text>
</g>
<!-- block_8&#45;&gt;block_8_node_0 -->
<g id="edge22" class="edge">
<title>block_8-&gt;block_8_node_0</title>
<path fill="none" stroke="black" d="M351,-576.01C351,-568.43 351,-559.3 351,-550.74"></path>
<polygon fill="black" stroke="black" points="354.5,-550.74 351,-540.74 347.5,-550.74 354.5,-550.74"></polygon>
</g>
<!-- block_10_node_0 -->
<g id="node25" class="node">
<title>block_10_node_0</title>
<ellipse fill="none" stroke="black" cx="487" cy="-467.2" rx="121.65" ry="18"></ellipse>
<text text-anchor="middle" x="487" y="-463" font-family="Times,serif" font-size="14.00">fmt.Println("x is equal to y")</text>
</g>
<!-- block_10&#45;&gt;block_10_node_0 -->
<g id="edge26" class="edge">
<title>block_10-&gt;block_10_node_0</title>
<path fill="none" stroke="black" d="M515.41,-575.82C509.99,-555.3 500.91,-520.87 494.47,-496.49"></path>
<polygon fill="black" stroke="black" points="497.87,-495.67 491.94,-486.9 491.1,-497.46 497.87,-495.67"></polygon>
</g>
<!-- block_8_node_0&#45;&gt;block_8_node_1 -->
<g id="edge23" class="edge">
<title>block_8_node_0-&gt;block_8_node_1</title>
<path fill="none" stroke="black" d="M352.93,-503.17C354.77,-486.89 357.59,-462.02 359.77,-442.72"></path>
<polygon fill="black" stroke="black" points="363.22,-443.37 360.87,-433.04 356.26,-442.59 363.22,-443.37"></polygon>
</g>
<!-- block_9 -->
<g id="node24" class="node">
<title>block_9</title>
<ellipse fill="none" stroke="black" cx="340" cy="-237" rx="75.93" ry="18"></ellipse>
<text text-anchor="middle" x="340" y="-232.8" font-family="Times,serif" font-size="14.00">block 9 (IfDone)</text>
</g>
<!-- block_8_node_1&#45;&gt;block_9 -->
<g id="edge24" class="edge">
<title>block_8_node_1-&gt;block_9</title>
<path fill="none" stroke="red" d="M360.71,-394.86C356.75,-364.86 348.58,-303 343.77,-266.57"></path>
<polygon fill="red" stroke="red" points="347.26,-266.23 342.48,-256.77 340.32,-267.14 347.26,-266.23"></polygon>
</g>
<!-- block_10_node_1 -->
<g id="node26" class="node">
<title>block_10_node_1</title>
<ellipse fill="none" stroke="black" cx="397" cy="-310" rx="29.17" ry="18"></ellipse>
<text text-anchor="middle" x="397" y="-305.8" font-family="Times,serif" font-size="14.00">x ++</text>
</g>
<!-- block_8_node_1&#45;&gt;block_10_node_1 -->
<g id="edge30" class="edge">
<title>block_8_node_1-&gt;block_10_node_1</title>
<path fill="none" stroke="black" stroke-dasharray="1,5" d="M368.77,-395.03C373.95,-379.6 381.66,-356.66 387.71,-338.65"></path>
<polygon fill="black" stroke="black" points="390.97,-339.94 390.84,-329.35 384.33,-337.71 390.97,-339.94"></polygon>
<text text-anchor="middle" x="391.5" y="-353.8" font-family="Times,serif" font-size="26.00">x</text>
</g>
<!-- block_9&#45;&gt;block_6 -->
<g id="edge25" class="edge">
<title>block_9-&gt;block_6</title>
<path fill="none" stroke="red" d="M308.71,-220.24C288.54,-210.09 262.09,-196.77 240.21,-185.75"></path>
<polygon fill="red" stroke="red" points="242.06,-182.77 231.56,-181.39 238.91,-189.02 242.06,-182.77"></polygon>
</g>
<!-- block_10_node_0&#45;&gt;block_10_node_1 -->
<g id="edge27" class="edge">
<title>block_10_node_0-&gt;block_10_node_1</title>
<path fill="none" stroke="black" d="M477.02,-449C461.32,-421.91 430.71,-369.13 412.24,-337.28"></path>
<polygon fill="black" stroke="black" points="415.28,-335.55 407.24,-328.65 409.22,-339.06 415.28,-335.55"></polygon>
</g>
<!-- block_10_node_1&#45;&gt;block_9 -->
<g id="edge28" class="edge">
<title>block_10_node_1-&gt;block_9</title>
<path fill="none" stroke="red" d="M384.63,-293.59C377.66,-284.91 368.77,-273.84 360.77,-263.87"></path>
<polygon fill="red" stroke="red" points="363.68,-261.9 354.69,-256.3 358.22,-266.29 363.68,-261.9"></polygon>
</g>
</g>
</g></svg>
